# xmcd
#
# Track frame offsets:
#   150
#   17851
#   32783
#   44445
#   61956
#   78888
#   92750
#   106242
#   120643
#   134321
#   152996
#   171182
#   188045
#   203710
#   223465
#   241729
#   257356
#
# Disc length: 3652 seconds
#
# Revision: 2
# Processed by: cddbd v1.5PL3 Copyright (c) Steve Scherf et al.
# Submitted via: Media_Universe 3.0
#
DISCID=e60e4211
DTITLE=Demis Roussos - Demis Roussos (Disk 1)
DYEAR=1900
DGENRE=UnClassifiable
TTITLE0=Good Bye My Love Good Bye
TTITLE1=Whem I am a Kid
TTITLE2=From Souvenirs to Souvenirs
TTITLE3=My friend the Wind
TTITLE4=Good days have Gone
TTITLE5=SomeDay SomeWhere
TTITLE6=Smile
TTITLE7=Marlene
TTITLE8=MidNight is the time I need You
TTITLE9=I'll be Your Friend
TTITLE10=My reason
TTITLE11=Lay it Down
TTITLE12=Rebecca
TTITLE13=Lord of the Flies
TTITLE14=Lovely sunny day
TTITLE15=She came up from the north
TTITLE16=Reverie
EXTD=
EXTT0=
EXTT1=
EXTT2=
EXTT3=
EXTT4=
EXTT5=
EXTT6=
EXTT7=
EXTT8=
EXTT9=
EXTT10=
EXTT11=
EXTT12=
EXTT13=
EXTT14=
EXTT15=
EXTT16=
PLAYORDER=
